<mxfile host="app.diagrams.net" agent="Mozilla/5.0 (Windows NT 10.0; Win64; x64) AppleWebKit/537.36 (KHTML, like Gecko) Chrome/133.0.0.0 Safari/537.36" version="26.1.0">
  <diagram name="Page-1" id="c4acf3e9-155e-7222-9cf6-157b1a14988f">
    <mxGraphModel dx="2567" dy="767" grid="1" gridSize="10" guides="1" tooltips="1" connect="1" arrows="1" fold="1" page="1" pageScale="1" pageWidth="1100" pageHeight="850" background="none" math="0" shadow="0">
      <root>
        <mxCell id="0" />
        <mxCell id="1" parent="0" />
        <mxCell id="wauUHXRGsOrUapXSiY5B-23" style="edgeStyle=orthogonalEdgeStyle;rounded=0;orthogonalLoop=1;jettySize=auto;html=1;exitX=1;exitY=0.3333333333333333;exitDx=0;exitDy=0;exitPerimeter=0;entryX=0;entryY=0.5;entryDx=0;entryDy=0;" edge="1" parent="1" source="wauUHXRGsOrUapXSiY5B-1" target="wauUHXRGsOrUapXSiY5B-8">
          <mxGeometry relative="1" as="geometry" />
        </mxCell>
        <mxCell id="wauUHXRGsOrUapXSiY5B-1" value="Cliente" style="shape=umlActor;verticalLabelPosition=bottom;verticalAlign=top;html=1;outlineConnect=0;" vertex="1" parent="1">
          <mxGeometry x="-390" y="460" width="30" height="60" as="geometry" />
        </mxCell>
        <mxCell id="wauUHXRGsOrUapXSiY5B-15" value="" style="edgeStyle=orthogonalEdgeStyle;rounded=0;orthogonalLoop=1;jettySize=auto;html=1;exitX=1;exitY=0.5;exitDx=0;exitDy=0;entryX=0;entryY=0.5;entryDx=0;entryDy=0;" edge="1" parent="1" source="wauUHXRGsOrUapXSiY5B-8" target="wauUHXRGsOrUapXSiY5B-9">
          <mxGeometry relative="1" as="geometry" />
        </mxCell>
        <mxCell id="wauUHXRGsOrUapXSiY5B-24" value="include" style="edgeLabel;html=1;align=center;verticalAlign=middle;resizable=0;points=[];" vertex="1" connectable="0" parent="wauUHXRGsOrUapXSiY5B-15">
          <mxGeometry x="-0.0857" y="-1" relative="1" as="geometry">
            <mxPoint as="offset" />
          </mxGeometry>
        </mxCell>
        <mxCell id="wauUHXRGsOrUapXSiY5B-8" value="Novo agendamento" style="ellipse;whiteSpace=wrap;html=1;" vertex="1" parent="1">
          <mxGeometry x="60" y="100" width="140" height="70" as="geometry" />
        </mxCell>
        <mxCell id="wauUHXRGsOrUapXSiY5B-17" style="edgeStyle=orthogonalEdgeStyle;rounded=0;orthogonalLoop=1;jettySize=auto;html=1;exitX=0.5;exitY=1;exitDx=0;exitDy=0;entryX=0.5;entryY=0;entryDx=0;entryDy=0;" edge="1" parent="1" source="wauUHXRGsOrUapXSiY5B-9" target="wauUHXRGsOrUapXSiY5B-10">
          <mxGeometry relative="1" as="geometry" />
        </mxCell>
        <mxCell id="wauUHXRGsOrUapXSiY5B-18" value="include" style="edgeLabel;html=1;align=center;verticalAlign=middle;resizable=0;points=[];" vertex="1" connectable="0" parent="wauUHXRGsOrUapXSiY5B-17">
          <mxGeometry x="-0.0111" relative="1" as="geometry">
            <mxPoint as="offset" />
          </mxGeometry>
        </mxCell>
        <mxCell id="wauUHXRGsOrUapXSiY5B-9" value="Selecionar serviço" style="ellipse;whiteSpace=wrap;html=1;" vertex="1" parent="1">
          <mxGeometry x="270" y="100" width="140" height="70" as="geometry" />
        </mxCell>
        <mxCell id="wauUHXRGsOrUapXSiY5B-19" style="edgeStyle=orthogonalEdgeStyle;rounded=0;orthogonalLoop=1;jettySize=auto;html=1;exitX=0;exitY=0.5;exitDx=0;exitDy=0;entryX=1;entryY=0.5;entryDx=0;entryDy=0;" edge="1" parent="1" source="wauUHXRGsOrUapXSiY5B-10" target="wauUHXRGsOrUapXSiY5B-11">
          <mxGeometry relative="1" as="geometry" />
        </mxCell>
        <mxCell id="wauUHXRGsOrUapXSiY5B-20" value="include" style="edgeLabel;html=1;align=center;verticalAlign=middle;resizable=0;points=[];" vertex="1" connectable="0" parent="wauUHXRGsOrUapXSiY5B-19">
          <mxGeometry x="0.0774" y="-3" relative="1" as="geometry">
            <mxPoint x="8" y="3" as="offset" />
          </mxGeometry>
        </mxCell>
        <mxCell id="wauUHXRGsOrUapXSiY5B-10" value="Selecionar profissional" style="ellipse;whiteSpace=wrap;html=1;" vertex="1" parent="1">
          <mxGeometry x="270" y="210" width="140" height="70" as="geometry" />
        </mxCell>
        <mxCell id="wauUHXRGsOrUapXSiY5B-21" style="edgeStyle=orthogonalEdgeStyle;rounded=0;orthogonalLoop=1;jettySize=auto;html=1;exitX=0.5;exitY=1;exitDx=0;exitDy=0;entryX=0.5;entryY=0;entryDx=0;entryDy=0;" edge="1" parent="1" source="wauUHXRGsOrUapXSiY5B-11" target="wauUHXRGsOrUapXSiY5B-13">
          <mxGeometry relative="1" as="geometry" />
        </mxCell>
        <mxCell id="wauUHXRGsOrUapXSiY5B-22" value="include" style="edgeLabel;html=1;align=center;verticalAlign=middle;resizable=0;points=[];" vertex="1" connectable="0" parent="wauUHXRGsOrUapXSiY5B-21">
          <mxGeometry x="-0.0026" y="-1" relative="1" as="geometry">
            <mxPoint as="offset" />
          </mxGeometry>
        </mxCell>
        <mxCell id="wauUHXRGsOrUapXSiY5B-11" value="Selecionar data" style="ellipse;whiteSpace=wrap;html=1;" vertex="1" parent="1">
          <mxGeometry x="60" y="210" width="140" height="70" as="geometry" />
        </mxCell>
        <mxCell id="wauUHXRGsOrUapXSiY5B-28" style="edgeStyle=orthogonalEdgeStyle;rounded=0;orthogonalLoop=1;jettySize=auto;html=1;exitX=0.5;exitY=1;exitDx=0;exitDy=0;entryX=0.5;entryY=0;entryDx=0;entryDy=0;" edge="1" parent="1" source="wauUHXRGsOrUapXSiY5B-13" target="wauUHXRGsOrUapXSiY5B-27">
          <mxGeometry relative="1" as="geometry" />
        </mxCell>
        <mxCell id="wauUHXRGsOrUapXSiY5B-29" value="include" style="edgeLabel;html=1;align=center;verticalAlign=middle;resizable=0;points=[];" vertex="1" connectable="0" parent="wauUHXRGsOrUapXSiY5B-28">
          <mxGeometry x="-0.1167" y="1" relative="1" as="geometry">
            <mxPoint as="offset" />
          </mxGeometry>
        </mxCell>
        <mxCell id="wauUHXRGsOrUapXSiY5B-13" value="Selecionar horário" style="ellipse;whiteSpace=wrap;html=1;" vertex="1" parent="1">
          <mxGeometry x="60" y="330" width="140" height="70" as="geometry" />
        </mxCell>
        <mxCell id="wauUHXRGsOrUapXSiY5B-27" value="Confirmar agendamento" style="ellipse;whiteSpace=wrap;html=1;" vertex="1" parent="1">
          <mxGeometry x="60" y="440" width="140" height="70" as="geometry" />
        </mxCell>
        <mxCell id="wauUHXRGsOrUapXSiY5B-43" style="edgeStyle=orthogonalEdgeStyle;rounded=0;orthogonalLoop=1;jettySize=auto;html=1;exitX=1;exitY=0.3333333333333333;exitDx=0;exitDy=0;exitPerimeter=0;entryX=0;entryY=0.5;entryDx=0;entryDy=0;" edge="1" parent="1" source="wauUHXRGsOrUapXSiY5B-33" target="wauUHXRGsOrUapXSiY5B-35">
          <mxGeometry relative="1" as="geometry" />
        </mxCell>
        <mxCell id="wauUHXRGsOrUapXSiY5B-44" style="edgeStyle=orthogonalEdgeStyle;rounded=0;orthogonalLoop=1;jettySize=auto;html=1;exitX=1;exitY=0.3333333333333333;exitDx=0;exitDy=0;exitPerimeter=0;entryX=0;entryY=0.5;entryDx=0;entryDy=0;" edge="1" parent="1" source="wauUHXRGsOrUapXSiY5B-33" target="wauUHXRGsOrUapXSiY5B-36">
          <mxGeometry relative="1" as="geometry" />
        </mxCell>
        <mxCell id="wauUHXRGsOrUapXSiY5B-45" style="edgeStyle=orthogonalEdgeStyle;rounded=0;orthogonalLoop=1;jettySize=auto;html=1;exitX=1;exitY=0.3333333333333333;exitDx=0;exitDy=0;exitPerimeter=0;entryX=0;entryY=0.5;entryDx=0;entryDy=0;" edge="1" parent="1" source="wauUHXRGsOrUapXSiY5B-33" target="wauUHXRGsOrUapXSiY5B-37">
          <mxGeometry relative="1" as="geometry" />
        </mxCell>
        <mxCell id="wauUHXRGsOrUapXSiY5B-46" style="edgeStyle=orthogonalEdgeStyle;rounded=0;orthogonalLoop=1;jettySize=auto;html=1;exitX=1;exitY=0.3333333333333333;exitDx=0;exitDy=0;exitPerimeter=0;entryX=0;entryY=0.5;entryDx=0;entryDy=0;" edge="1" parent="1" source="wauUHXRGsOrUapXSiY5B-33" target="wauUHXRGsOrUapXSiY5B-38">
          <mxGeometry relative="1" as="geometry" />
        </mxCell>
        <mxCell id="wauUHXRGsOrUapXSiY5B-47" style="edgeStyle=orthogonalEdgeStyle;rounded=0;orthogonalLoop=1;jettySize=auto;html=1;exitX=1;exitY=0.3333333333333333;exitDx=0;exitDy=0;exitPerimeter=0;entryX=0;entryY=0.5;entryDx=0;entryDy=0;" edge="1" parent="1" source="wauUHXRGsOrUapXSiY5B-33" target="wauUHXRGsOrUapXSiY5B-39">
          <mxGeometry relative="1" as="geometry" />
        </mxCell>
        <mxCell id="wauUHXRGsOrUapXSiY5B-48" style="edgeStyle=orthogonalEdgeStyle;rounded=0;orthogonalLoop=1;jettySize=auto;html=1;exitX=1;exitY=0.3333333333333333;exitDx=0;exitDy=0;exitPerimeter=0;entryX=0;entryY=0.5;entryDx=0;entryDy=0;" edge="1" parent="1" source="wauUHXRGsOrUapXSiY5B-33" target="wauUHXRGsOrUapXSiY5B-40">
          <mxGeometry relative="1" as="geometry" />
        </mxCell>
        <mxCell id="wauUHXRGsOrUapXSiY5B-49" style="edgeStyle=orthogonalEdgeStyle;rounded=0;orthogonalLoop=1;jettySize=auto;html=1;exitX=1;exitY=0.3333333333333333;exitDx=0;exitDy=0;exitPerimeter=0;entryX=0;entryY=0.5;entryDx=0;entryDy=0;" edge="1" parent="1" source="wauUHXRGsOrUapXSiY5B-33" target="wauUHXRGsOrUapXSiY5B-42">
          <mxGeometry relative="1" as="geometry" />
        </mxCell>
        <mxCell id="wauUHXRGsOrUapXSiY5B-33" value="Gerente" style="shape=umlActor;verticalLabelPosition=bottom;verticalAlign=top;html=1;outlineConnect=0;" vertex="1" parent="1">
          <mxGeometry x="-400" y="865" width="30" height="60" as="geometry" />
        </mxCell>
        <mxCell id="wauUHXRGsOrUapXSiY5B-35" value="Cadastrar especialidades" style="ellipse;whiteSpace=wrap;html=1;" vertex="1" parent="1">
          <mxGeometry x="170" y="915" width="140" height="70" as="geometry" />
        </mxCell>
        <mxCell id="wauUHXRGsOrUapXSiY5B-36" value="Cadastrar profissionais" style="ellipse;whiteSpace=wrap;html=1;" vertex="1" parent="1">
          <mxGeometry x="190" y="1035" width="140" height="70" as="geometry" />
        </mxCell>
        <mxCell id="wauUHXRGsOrUapXSiY5B-37" value="Cadastrar horário dos profissionais sobre cada especialidade" style="ellipse;whiteSpace=wrap;html=1;" vertex="1" parent="1">
          <mxGeometry x="180" y="1155" width="140" height="70" as="geometry" />
        </mxCell>
        <mxCell id="wauUHXRGsOrUapXSiY5B-38" value="Ver agendamentos" style="ellipse;whiteSpace=wrap;html=1;" vertex="1" parent="1">
          <mxGeometry x="170" y="1245" width="140" height="70" as="geometry" />
        </mxCell>
        <mxCell id="wauUHXRGsOrUapXSiY5B-39" value="Confirmar agendamentos" style="ellipse;whiteSpace=wrap;html=1;" vertex="1" parent="1">
          <mxGeometry x="170" y="1345" width="140" height="70" as="geometry" />
        </mxCell>
        <mxCell id="wauUHXRGsOrUapXSiY5B-51" style="edgeStyle=orthogonalEdgeStyle;rounded=0;orthogonalLoop=1;jettySize=auto;html=1;exitX=0.5;exitY=0;exitDx=0;exitDy=0;entryX=0;entryY=0.5;entryDx=0;entryDy=0;" edge="1" parent="1" source="wauUHXRGsOrUapXSiY5B-40" target="wauUHXRGsOrUapXSiY5B-41">
          <mxGeometry relative="1" as="geometry" />
        </mxCell>
        <mxCell id="wauUHXRGsOrUapXSiY5B-52" value="extends" style="edgeLabel;html=1;align=center;verticalAlign=middle;resizable=0;points=[];" vertex="1" connectable="0" parent="wauUHXRGsOrUapXSiY5B-51">
          <mxGeometry x="0.1142" y="-3" relative="1" as="geometry">
            <mxPoint as="offset" />
          </mxGeometry>
        </mxCell>
        <mxCell id="wauUHXRGsOrUapXSiY5B-40" value="Desmarcar agendamentos" style="ellipse;whiteSpace=wrap;html=1;" vertex="1" parent="1">
          <mxGeometry x="320" y="975" width="140" height="70" as="geometry" />
        </mxCell>
        <mxCell id="wauUHXRGsOrUapXSiY5B-41" value="Enviar alerta ao cliente" style="ellipse;whiteSpace=wrap;html=1;" vertex="1" parent="1">
          <mxGeometry x="460" y="880" width="140" height="70" as="geometry" />
        </mxCell>
        <mxCell id="wauUHXRGsOrUapXSiY5B-42" value="Visualizar faturamento" style="ellipse;whiteSpace=wrap;html=1;" vertex="1" parent="1">
          <mxGeometry x="320" y="1085" width="140" height="70" as="geometry" />
        </mxCell>
        <mxCell id="wauUHXRGsOrUapXSiY5B-61" style="edgeStyle=orthogonalEdgeStyle;rounded=0;orthogonalLoop=1;jettySize=auto;html=1;exitX=1;exitY=0.3333333333333333;exitDx=0;exitDy=0;exitPerimeter=0;entryX=0;entryY=0.5;entryDx=0;entryDy=0;" edge="1" parent="1" source="wauUHXRGsOrUapXSiY5B-53" target="wauUHXRGsOrUapXSiY5B-60">
          <mxGeometry relative="1" as="geometry" />
        </mxCell>
        <mxCell id="wauUHXRGsOrUapXSiY5B-53" value="Usuário" style="shape=umlActor;verticalLabelPosition=bottom;verticalAlign=top;html=1;" vertex="1" parent="1">
          <mxGeometry x="-260" y="610" width="30" height="60" as="geometry" />
        </mxCell>
        <mxCell id="wauUHXRGsOrUapXSiY5B-57" style="edgeStyle=orthogonalEdgeStyle;rounded=0;orthogonalLoop=1;jettySize=auto;html=1;exitX=0.5;exitY=0;exitDx=0;exitDy=0;exitPerimeter=0;entryX=0;entryY=0.3333333333333333;entryDx=0;entryDy=0;entryPerimeter=0;" edge="1" parent="1" source="wauUHXRGsOrUapXSiY5B-33" target="wauUHXRGsOrUapXSiY5B-53">
          <mxGeometry relative="1" as="geometry" />
        </mxCell>
        <mxCell id="wauUHXRGsOrUapXSiY5B-58" style="edgeStyle=orthogonalEdgeStyle;rounded=0;orthogonalLoop=1;jettySize=auto;html=1;exitX=1;exitY=0.3333333333333333;exitDx=0;exitDy=0;exitPerimeter=0;entryX=0;entryY=0.3333333333333333;entryDx=0;entryDy=0;entryPerimeter=0;" edge="1" parent="1" source="wauUHXRGsOrUapXSiY5B-1" target="wauUHXRGsOrUapXSiY5B-53">
          <mxGeometry relative="1" as="geometry" />
        </mxCell>
        <mxCell id="wauUHXRGsOrUapXSiY5B-59" value="Cadastrar especialidades" style="ellipse;whiteSpace=wrap;html=1;" vertex="1" parent="1">
          <mxGeometry x="180" y="925" width="140" height="70" as="geometry" />
        </mxCell>
        <mxCell id="wauUHXRGsOrUapXSiY5B-60" value="Realizar login" style="ellipse;whiteSpace=wrap;html=1;" vertex="1" parent="1">
          <mxGeometry x="-10" y="590" width="140" height="70" as="geometry" />
        </mxCell>
      </root>
    </mxGraphModel>
  </diagram>
</mxfile>
